<svg width="28" height="29" viewBox="0 0 28 29" fill="none" xmlns="http://www.w3.org/2000/svg">
<path d="M9.7326 26.9289V22.5972C9.7326 21.4914 10.6356 20.595 11.7494 20.595H15.8212C16.3561 20.595 16.8691 20.8059 17.2473 21.1814C17.6256 21.5569 17.838 22.0662 17.838 22.5972V26.9289C17.8347 27.3887 18.0163 27.8307 18.3425 28.157C18.6688 28.4832 19.1127 28.6667 19.5758 28.6667H22.3538C23.6511 28.67 24.8966 28.1607 25.8152 27.2512C26.7337 26.3416 27.25 25.1066 27.25 23.8186V11.4781C27.25 10.4377 26.7854 9.45082 25.9815 8.78332L16.5315 1.29086C14.8877 -0.0228303 12.5324 0.0195853 10.9376 1.39159L1.70327 8.78332C0.861381 9.43114 0.358198 10.4209 0.333332 11.4781V23.806C0.333332 26.4905 2.52546 28.6667 5.22958 28.6667H7.94408C8.9059 28.6667 9.68758 27.8963 9.69455 26.9415L9.7326 26.9289Z" fill="#5A4FCF"/>
</svg>
